<svg width="24" height="24" viewBox="0 0 24 24" fill="none" xmlns="http://www.w3.org/2000/svg">
<path fill-rule="evenodd" clip-rule="evenodd" d="M21.2507 15.805C21.7336 14.6321 22 13.3471 22 12C22 6.47715 17.5228 2 12 2C8.77699 2 5.91011 3.52475 4.08134 5.89226L5.83826 6.90662C6.30237 6.3484 6.84136 5.85444 7.44 5.44L8.88 6.88C8.40885 7.17036 7.97972 7.523 7.60494 7.92661L11 9.88675V3H13V11.0415L17.7327 13.7739C17.9064 13.2131 18 12.6173 18 12C18 9.83 16.84 7.94 15.11 6.89L16.56 5.44C18.64 6.88 20 9.28 20 12C20 12.9828 19.823 13.9241 19.4991 14.7937L21.2507 15.805ZM20.3068 17.5694C18.5116 20.2416 15.4611 22 12 22C6.47715 22 2 17.5228 2 12C2 10.4173 2.36769 8.92044 3.02232 7.59023L4.76143 8.59431C4.273 9.62694 4 10.7814 4 12C4 16.42 7.58 20 12 20C14.722 20 17.1254 18.6423 18.5703 16.5668L20.3068 17.5694ZM16.8275 15.5607C15.734 17.0397 13.9777 18 12 18C8.69 18 6 15.31 6 12C6 11.1453 6.17994 10.3341 6.50317 9.59991L11 12.1962V13H12.3923L16.8275 15.5607ZM12 24C18.6274 24 24 18.6274 24 12C24 5.37258 18.6274 0 12 0C5.37258 0 0 5.37258 0 12C0 18.6274 5.37258 24 12 24Z" fill="#002638"/>
</svg>
