<svg width="24" height="24" viewBox="0 0 24 24" fill="none" xmlns="http://www.w3.org/2000/svg">
<path fill-rule="evenodd" clip-rule="evenodd" d="M22 12C22 17.5228 17.5228 22 12 22C6.47715 22 2 17.5228 2 12C2 6.47715 6.47715 2 12 2C17.5228 2 22 6.47715 22 12ZM24 12C24 18.6274 18.6274 24 12 24C5.37258 24 0 18.6274 0 12C0 5.37258 5.37258 0 12 0C18.6274 0 24 5.37258 24 12ZM11 13V3H13V13H11ZM15.11 6.89L16.56 5.44C18.64 6.88 20 9.28 20 12C20 16.42 16.42 20 12 20C7.58 20 4 16.42 4 12C4 9.28 5.36 6.88 7.44 5.44L8.88 6.88C7.16 7.94 6 9.83 6 12C6 15.31 8.69 18 12 18C15.31 18 18 15.31 18 12C18 9.83 16.84 7.94 15.11 6.89Z" fill="#A7AFB5"/>
</svg>
