<svg width="21" height="15" viewBox="0 0 21 15" fill="none" xmlns="http://www.w3.org/2000/svg">
<path fill-rule="evenodd" clip-rule="evenodd" d="M7.64536 0H4.42588C2.39455 0 0.746483 1.67961 0.746483 3.74982V11.2495C0.746483 13.3197 2.39455 14.9993 4.42588 14.9993H7.64536C7.89832 14.9993 8.10529 14.7883 8.10529 14.5305V13.5931C8.10529 13.3353 7.89832 13.1244 7.64536 13.1244H4.42588C3.41022 13.1244 2.58618 12.2846 2.58618 11.2495V3.74982C2.58618 2.71471 3.41022 1.87491 4.42588 1.87491H7.64536C7.89832 1.87491 8.10529 1.66398 8.10529 1.40618V0.468727C8.10529 0.210927 7.89832 0 7.64536 0ZM12.5321 1.52727L13.2833 0.761682C13.4634 0.578097 13.7547 0.578097 13.9348 0.757776L20.2358 7.16371C20.4159 7.3473 20.4159 7.64416 20.2358 7.82774L13.9348 14.2337C13.7547 14.4173 13.4634 14.4173 13.2833 14.2337L12.5321 13.4681C12.3519 13.2845 12.3558 12.9837 12.5397 12.8002L16.8745 8.51521H7.33874C7.08578 8.51521 6.87881 8.30428 6.87881 8.04648V6.95279C6.87881 6.69499 7.08578 6.48406 7.33874 6.48406H16.8745L12.5397 2.19521C12.3519 2.01553 12.3481 1.71476 12.5321 1.52727Z" fill="#737B80"/>
</svg>
