<svg width="15" height="20" viewBox="0 0 15 20" fill="none" xmlns="http://www.w3.org/2000/svg">
<path fill-rule="evenodd" clip-rule="evenodd" d="M14.2678 3.64777L11.3526 0.732266C10.8838 0.263359 10.248 0 9.58488 0H2.5C1.1193 0 0 1.11922 0 2.5L0.00078125 17.5C0.00078125 18.8806 1.12008 20 2.50078 20H12.5C13.875 20 15 18.875 15 17.5V5.41566C15 4.7525 14.7366 4.11652 14.2678 3.64777ZM13.1251 17.5C13.1251 17.8452 12.8452 18.125 12.5001 18.125H2.5007C2.15547 18.125 1.8757 17.8452 1.8757 17.5L1.875 2.50488C1.875 2.15973 2.15484 1.87988 2.5 1.87988H8.75031V5C8.75031 5.69031 9.30992 6.25 10.0003 6.25H13.1251V17.5ZM6.875 5H3.75C3.40453 5 3.125 4.72047 3.125 4.375C3.125 4.02953 3.40453 3.75 3.75 3.75H6.875C7.22047 3.75 7.5 4.02953 7.5 4.375C7.5 4.72047 7.22047 5 6.875 5ZM7.5 6.875C7.5 6.52953 7.22047 6.25 6.875 6.25H3.75C3.40453 6.25 3.125 6.52953 3.125 6.875C3.125 7.22047 3.40453 7.5 3.75 7.5H6.875C7.22047 7.5 7.5 7.22047 7.5 6.875ZM7.49824 11.9983L7.71492 12.0605C8.5859 12.3096 10.2076 12.7746 9.91523 14.4653C9.77371 15.282 9.15481 15.8185 8.28133 16.0057V16.25C8.28133 16.6809 7.9316 17.0312 7.50008 17.0312C7.06855 17.0312 6.71883 16.6809 6.71883 16.25V15.9855C6.37969 15.9105 6.04285 15.8011 5.7398 15.6921L5.5732 15.6336C5.16609 15.4895 4.95309 15.0427 5.09652 14.6362C5.24055 14.2297 5.68672 14.0186 6.0932 14.1589L6.26777 14.2224L6.27176 14.2239C6.57718 14.3333 6.92203 14.457 7.19184 14.4971C7.72773 14.5801 8.32223 14.5044 8.37594 14.1992L8.37594 14.1992C8.41012 14.0002 8.42899 13.8904 7.28523 13.5632L7.05816 13.4973L7.05708 13.497C6.3796 13.2979 4.79578 12.8324 5.08492 11.1597C5.22699 10.3418 5.84297 9.79539 6.71883 9.60906V9.375C6.71883 8.9441 7.06855 8.59375 7.50008 8.59375C7.9316 8.59375 8.28133 8.9441 8.28133 9.375V9.6341C8.49434 9.68078 8.72445 9.74305 9.00641 9.84008C9.41414 9.98168 9.62961 10.4273 9.48801 10.835C9.34641 11.2414 8.89961 11.4575 8.49371 11.3171C8.26484 11.2378 8.02496 11.1609 7.80648 11.1279C7.27242 11.0461 6.67793 11.1206 6.62422 11.4258L6.62418 11.426C6.59428 11.6005 6.57272 11.7262 7.49824 11.9983Z" fill="#002638"/>
</svg>
