<svg width="20" height="20" viewBox="0 0 20 20" fill="none" xmlns="http://www.w3.org/2000/svg">
<path fill-rule="evenodd" clip-rule="evenodd" d="M7.53945 8.75H14.9608C15.9503 8.75 16.571 7.7075 16.0762 6.87437L12.3655 0.623789C12.1311 0.239258 11.7059 0 11.2502 0C10.7945 0 10.3691 0.239258 10.1347 0.623789L6.42402 6.87437C5.92926 7.7075 6.54992 8.75 7.53945 8.75ZM0 15C0 12.2363 2.23633 10 5 10C7.76367 10 10 12.2363 10 15C10 17.7637 7.76367 20 5 20C2.23633 20 0 17.7637 0 15ZM1.875 15C1.875 16.7231 3.27691 18.125 5 18.125C6.72316 18.125 8.125 16.7231 8.125 15C8.125 13.2768 6.72316 11.875 5 11.875C3.27691 11.875 1.875 13.2768 1.875 15ZM13.8961 6.875L11.2501 2.41781L8.60422 6.875H13.8961ZM18.75 10.625H12.5C11.8115 10.625 11.25 11.1865 11.25 11.875V18.125C11.25 18.8135 11.8115 19.375 12.5 19.375H18.75C19.4385 19.375 20 18.8135 20 18.125V11.875C20 11.1865 19.4385 10.625 18.75 10.625ZM13.125 17.5H18.125V12.5H13.125V17.5Z" fill="#002638"/>
</svg>
