<svg width="20" height="16" viewBox="0 0 20 16" fill="none" xmlns="http://www.w3.org/2000/svg">
<path fill-rule="evenodd" clip-rule="evenodd" d="M3.88889 0C1.74045 0 0 1.7401 0 3.88819V11.6646C0 13.8127 1.74045 15.5528 3.88889 15.5528C6.03733 15.5528 7.77778 13.8127 7.77778 11.6646V3.88819C7.77778 1.7401 6.03733 0 3.88889 0ZM18.3724 6.07097C16.2066 3.90556 12.6823 3.90122 10.5122 6.07097C8.34201 8.24076 8.34201 11.7601 10.5122 13.9299C12.6823 16.0952 16.2023 16.0996 18.3724 13.9299C20.5425 11.7601 20.5425 8.23642 18.3724 6.07097ZM11.1719 7.90656L16.5365 13.2703C13.0469 15.5094 8.92361 11.4042 11.1719 7.90656ZM17.717 12.0899L12.3524 6.72622C15.842 4.48271 19.9653 8.59226 17.717 12.0899ZM1.66667 3.88819V7.77642H6.11111V3.88819C6.11111 0.945972 1.66667 0.945972 1.66667 3.88819Z" fill="#002638"/>
</svg>
