<svg width="20" height="18" viewBox="0 0 20 18" fill="none" xmlns="http://www.w3.org/2000/svg">
<path fill-rule="evenodd" clip-rule="evenodd" d="M13.1481 5.1767H15.0252V7.00487C15.0252 7.81905 16.0375 8.22632 16.5944 7.65081L19.6896 4.60651C20.057 4.24906 20.0569 3.67054 19.6896 3.3135L16.5943 0.269208C16.0023 -0.306308 14.9903 0.102072 14.9903 0.916283V2.74065H12.522C12.1283 2.74065 11.7566 2.92145 11.5206 3.22824L9.93934 5.27947L11.4694 7.30824L13.1481 5.1767ZM16.5956 10.0107C16.0035 9.4352 15.0264 9.84224 15.0264 10.6566V12.4848H13.1481L6.01056 3.22787C5.77577 2.92336 5.40403 2.74066 5.0088 2.74066H1.2522C0.559968 2.74066 0 3.28496 0 3.95868C0 4.6324 0.559968 5.1767 1.2522 5.1767H4.3827L11.5202 14.4336C11.755 14.742 12.1268 14.9208 12.522 14.9208H15.0252V16.7456C15.0252 17.5598 16.0372 17.9682 16.6292 17.3927L19.7245 14.3484C20.0918 13.9911 20.0918 13.4124 19.7245 13.0554L16.5956 10.0107ZM1.2522 12.4848H4.3827L6.02621 10.3533L7.59106 12.3828L6.01016 14.4333C5.7742 14.7401 5.40246 14.9209 5.0088 14.9209H1.2522C0.559968 14.9209 0 14.3762 0 13.7029C0 13.0295 0.559968 12.4848 1.2522 12.4848Z" fill="#002638"/>
</svg>
